<svg width="24" height="24" viewBox="0 0 24 24" fill="none" xmlns="http://www.w3.org/2000/svg">
<path d="M11.0001 17.035C11.0002 17.1266 10.9751 17.2165 10.9275 17.2948C10.88 17.3731 10.8118 17.4368 10.7305 17.4791C10.6492 17.5213 10.5578 17.5403 10.4664 17.5341C10.375 17.528 10.287 17.4968 10.2121 17.444L3.07914 12.408C3.01393 12.3618 2.96074 12.3006 2.92403 12.2297C2.88732 12.1587 2.86816 12.0799 2.86816 12C2.86816 11.9201 2.88732 11.8413 2.92403 11.7703C2.96074 11.6993 3.01393 11.6382 3.07914 11.592L10.2121 6.556C10.287 6.50322 10.375 6.47204 10.4664 6.46586C10.5578 6.45968 10.6492 6.47873 10.7305 6.52094C10.8118 6.56315 10.88 6.62688 10.9275 6.7052C10.9751 6.78351 11.0002 6.87338 11.0001 6.965V17.035ZM12.0791 12.408C12.0139 12.3618 11.9607 12.3006 11.924 12.2297C11.8873 12.1587 11.8682 12.0799 11.8682 12C11.8682 11.9201 11.8873 11.8413 11.924 11.7703C11.9607 11.6993 12.0139 11.6382 12.0791 11.592L19.2121 6.556C19.287 6.50322 19.375 6.47204 19.4664 6.46586C19.5578 6.45968 19.6492 6.47873 19.7305 6.52094C19.8118 6.56315 19.88 6.62688 19.9275 6.7052C19.9751 6.78351 20.0002 6.87338 20.0001 6.965V17.035C20.0002 17.1266 19.9751 17.2165 19.9275 17.2948C19.88 17.3731 19.8118 17.4368 19.7305 17.4791C19.6492 17.5213 19.5578 17.5403 19.4664 17.5341C19.375 17.528 19.287 17.4968 19.2121 17.444L12.0791 12.408Z" fill="white"/>
</svg>
