<svg width="24" height="24" viewBox="0 0 24 24" fill="none" xmlns="http://www.w3.org/2000/svg">
<path d="M18.1758 12.4161L7.5768 19.4821C7.50151 19.5322 7.41403 19.561 7.3237 19.5653C7.23336 19.5696 7.14354 19.5494 7.0638 19.5067C6.98407 19.464 6.91741 19.4005 6.87092 19.3229C6.82443 19.2453 6.79985 19.1566 6.7998 19.0661V4.93413C6.79985 4.84369 6.82443 4.75495 6.87092 4.67737C6.91741 4.59979 6.98407 4.53628 7.0638 4.49359C7.14354 4.4509 7.23336 4.43064 7.3237 4.43496C7.41403 4.43928 7.50151 4.46802 7.5768 4.51813L18.1758 11.5841C18.2443 11.6298 18.3004 11.6917 18.3393 11.7642C18.3781 11.8368 18.3984 11.9178 18.3984 12.0001C18.3984 12.0824 18.3781 12.1635 18.3393 12.236C18.3004 12.3086 18.2443 12.3705 18.1758 12.4161Z" fill="white"/>
</svg>
