<svg width="24" height="24" viewBox="0 0 24 24" fill="none" xmlns="http://www.w3.org/2000/svg">
<path d="M6.0892 16H2.2002C1.93498 16 1.68063 15.8946 1.49309 15.7071C1.30555 15.5196 1.2002 15.2652 1.2002 15V8.99999C1.2002 8.73477 1.30555 8.48042 1.49309 8.29288C1.68063 8.10535 1.93498 7.99999 2.2002 7.99999H6.0892L11.3832 3.66799C11.4564 3.60794 11.5452 3.56993 11.6393 3.55838C11.7333 3.54684 11.8286 3.56224 11.9142 3.60279C11.9998 3.64334 12.0722 3.70737 12.1228 3.78742C12.1734 3.86748 12.2003 3.96027 12.2002 4.05499V19.945C12.2003 20.0397 12.1734 20.1325 12.1228 20.2126C12.0722 20.2926 11.9998 20.3566 11.9142 20.3972C11.8286 20.4377 11.7333 20.4531 11.6393 20.4416C11.5452 20.4301 11.4564 20.392 11.3832 20.332L6.0902 16H6.0892ZM16.0632 16.591L14.6412 15.169C15.1267 14.7957 15.5198 14.3157 15.7901 13.7662C16.0604 13.2167 16.2007 12.6124 16.2002 12C16.2002 10.57 15.4502 9.31499 14.3202 8.60799L15.7592 7.16899C16.5166 7.72618 17.1323 8.45384 17.5564 9.29311C17.9804 10.1324 18.201 11.0597 18.2002 12C18.2002 13.842 17.3702 15.49 16.0632 16.591Z" fill="white"/>
</svg>
