<svg width="24" height="24" viewBox="0 0 24 24" fill="none" xmlns="http://www.w3.org/2000/svg">
<path d="M6.08822 16H2.19922C1.934 16 1.67965 15.8946 1.49211 15.7071C1.30458 15.5196 1.19922 15.2652 1.19922 15V8.99999C1.19922 8.73477 1.30458 8.48042 1.49211 8.29288C1.67965 8.10535 1.934 7.99999 2.19922 7.99999H6.08822L11.3822 3.66799C11.4555 3.60794 11.5443 3.56993 11.6383 3.55838C11.7323 3.54684 11.8277 3.56224 11.9133 3.60279C11.9989 3.64334 12.0712 3.70737 12.1218 3.78742C12.1724 3.86748 12.1993 3.96027 12.1992 4.05499V19.945C12.1993 20.0397 12.1724 20.1325 12.1218 20.2126C12.0712 20.2926 11.9989 20.3566 11.9133 20.3972C11.8277 20.4377 11.7323 20.4531 11.6383 20.4416C11.5443 20.4301 11.4555 20.392 11.3822 20.332L6.08922 16H6.08822ZM19.6052 20.134L18.1892 18.718C19.1372 17.8745 19.8956 16.8397 20.4144 15.6817C20.9333 14.5237 21.2007 13.2689 21.1992 12C21.2005 10.6661 20.9046 9.34864 20.3331 8.14336C19.7616 6.93808 18.9288 5.87523 17.8952 5.03199L19.3152 3.61199C20.5337 4.64354 21.5125 5.92847 22.1833 7.37719C22.8541 8.8259 23.2008 10.4035 23.1992 12C23.1992 15.223 21.8132 18.122 19.6052 20.134ZM16.0622 16.591L14.6402 15.169C15.1257 14.7957 15.5188 14.3157 15.7891 13.7662C16.0595 13.2167 16.1998 12.6124 16.1992 12C16.1992 10.57 15.4492 9.31499 14.3192 8.60799L15.7582 7.16899C16.5157 7.72618 17.1313 8.45384 17.5554 9.29311C17.9795 10.1324 18.2 11.0597 18.1992 12C18.1992 13.842 17.3692 15.49 16.0622 16.591Z" fill="white"/>
</svg>
