<svg width="24" height="24" viewBox="0 0 24 24" fill="none" xmlns="http://www.w3.org/2000/svg">
<g clip-path="url(#clip0)">
<path d="M6.0892 16H2.2002C1.93498 16 1.68062 15.8946 1.49309 15.7071C1.30555 15.5196 1.2002 15.2652 1.2002 15V8.99999C1.2002 8.73477 1.30555 8.48042 1.49309 8.29288C1.68062 8.10535 1.93498 7.99999 2.2002 7.99999H6.0892L11.3832 3.66799C11.4564 3.60794 11.5452 3.56993 11.6393 3.55838C11.7333 3.54684 11.8286 3.56224 11.9142 3.60279C11.9998 3.64334 12.0722 3.70737 12.1228 3.78742C12.1734 3.86748 12.2003 3.96027 12.2002 4.05499V19.945C12.2003 20.0397 12.1734 20.1325 12.1228 20.2126C12.0722 20.2926 11.9998 20.3566 11.9142 20.3972C11.8286 20.4377 11.7333 20.4531 11.6393 20.4416C11.5452 20.4301 11.4564 20.392 11.3832 20.332L6.0902 16H6.0892ZM20.6142 12L24.1502 15.536L22.7362 16.95L19.2002 13.414L15.6642 16.95L14.2502 15.536L17.7862 12L14.2502 8.46399L15.6642 7.04999L19.2002 10.586L22.7362 7.04999L24.1502 8.46399L20.6142 12Z" fill="white"/>
</g>
<defs>
<clipPath id="clip0">
<rect width="24" height="24" fill="white"/>
</clipPath>
</defs>
</svg>
